<svg xmlns="http://www.w3.org/2000/svg" viewBox="0 0 512 512" role="img" aria-labelledby="title desc">
  <title id="title">Bytewerk PDF Text Pro Icon</title>
  <desc id="desc">Premium PDF to text app icon with document, text lines and Bytewerk accent colors.</desc>
  <defs>
    <linearGradient id="bg" x1="84" y1="48" x2="428" y2="464" gradientUnits="userSpaceOnUse">
      <stop offset="0" stop-color="#111827"/>
      <stop offset="0.55" stop-color="#1f2937"/>
      <stop offset="1" stop-color="#05070b"/>
    </linearGradient>
    <linearGradient id="paper" x1="154" y1="96" x2="360" y2="414" gradientUnits="userSpaceOnUse">
      <stop offset="0" stop-color="#ffffff"/>
      <stop offset="1" stop-color="#e8edf7"/>
    </linearGradient>
    <linearGradient id="accent" x1="162" y1="352" x2="358" y2="352" gradientUnits="userSpaceOnUse">
      <stop offset="0" stop-color="#d97706"/>
      <stop offset="1" stop-color="#f59e0b"/>
    </linearGradient>
    <filter id="shadow" x="-20%" y="-20%" width="140%" height="150%">
      <feDropShadow dx="0" dy="24" stdDeviation="22" flood-color="#000000" flood-opacity="0.34"/>
    </filter>
  </defs>
  <rect width="512" height="512" rx="118" fill="url(#bg)"/>
  <circle cx="388" cy="126" r="48" fill="#d97706" opacity="0.92"/>
  <circle cx="122" cy="384" r="34" fill="#111827" stroke="#d97706" stroke-width="10"/>
  <g filter="url(#shadow)">
    <path d="M158 86h150l78 82v258H158z" fill="url(#paper)"/>
    <path d="M308 86v84h78z" fill="#cfd7e6"/>
    <path d="M188 204h136" stroke="#111827" stroke-width="20" stroke-linecap="round"/>
    <path d="M188 252h166" stroke="#4b5563" stroke-width="18" stroke-linecap="round"/>
    <path d="M188 300h128" stroke="#4b5563" stroke-width="18" stroke-linecap="round"/>
    <path d="M168 352h196" stroke="url(#accent)" stroke-width="34" stroke-linecap="round"/>
    <path d="M206 354h118" stroke="#ffffff" stroke-width="14" stroke-linecap="round"/>
  </g>
  <g fill="#ffffff">
    <rect x="82" y="96" width="38" height="38" rx="11"/>
    <rect x="126" y="96" width="38" height="38" rx="11" opacity="0.78"/>
    <rect x="82" y="140" width="38" height="38" rx="11" opacity="0.78"/>
    <rect x="126" y="140" width="38" height="38" rx="11" fill="#d97706"/>
  </g>
</svg>
