<svg xmlns="http://www.w3.org/2000/svg" viewBox="0 0 512 512">
  <defs>
    <linearGradient id="bg" x1="80" y1="40" x2="430" y2="470" gradientUnits="userSpaceOnUse">
      <stop stop-color="#fff8e8"/>
      <stop offset=".48" stop-color="#f3c85f"/>
      <stop offset="1" stop-color="#0f2748"/>
    </linearGradient>
    <linearGradient id="ring" x1="90" y1="80" x2="420" y2="420" gradientUnits="userSpaceOnUse">
      <stop stop-color="#ffe28a"/>
      <stop offset="1" stop-color="#b87516"/>
    </linearGradient>
    <filter id="shadow" x="-20%" y="-20%" width="140%" height="140%">
      <feDropShadow dx="0" dy="18" stdDeviation="20" flood-color="#0f1a2f" flood-opacity=".28"/>
    </filter>
  </defs>
  <rect width="512" height="512" rx="112" fill="url(#bg)"/>
  <circle cx="256" cy="256" r="174" fill="#122844" opacity=".96" filter="url(#shadow)"/>
  <circle cx="256" cy="256" r="188" fill="none" stroke="url(#ring)" stroke-width="18"/>
  <path d="M159 164h194a28 28 0 0 1 28 28v164a28 28 0 0 1-28 28H159a28 28 0 0 1-28-28V192a28 28 0 0 1 28-28Z" fill="#fffaf0"/>
  <path d="M131 221h250" stroke="#d9b45a" stroke-width="14"/>
  <path d="M184 132v58M328 132v58" stroke="#fffaf0" stroke-width="24" stroke-linecap="round"/>
  <path d="M186 268h42M242 268h42M298 268h42M186 322h42M242 322h42" stroke="#142a47" stroke-width="16" stroke-linecap="round"/>
  <path d="M365 139 145 385" stroke="#f6c45d" stroke-width="16" stroke-linecap="round"/>
</svg>